<svg xmlns="http://www.w3.org/2000/svg" width="1200" height="780" viewBox="0 0 1200 780">
  <defs>
    <linearGradient id="bg" x1="0" x2="1" y1="0" y2="1">
      <stop offset="0%" stop-color="#f5f7fb"/>
      <stop offset="100%" stop-color="#eef6f2"/>
    </linearGradient>
    <filter id="shadow" x="-20%" y="-20%" width="140%" height="140%">
      <feDropShadow dx="0" dy="12" stdDeviation="20" flood-color="#0f172a" flood-opacity="0.12"/>
    </filter>
  </defs>
  <rect width="1200" height="780" fill="url(#bg)"/>
  <rect x="90" y="60" width="1020" height="660" rx="28" fill="#ffffff" filter="url(#shadow)"/>
  <rect x="90" y="60" width="1020" height="86" rx="28" fill="#0f8a5f"/>
  <text x="132" y="112" font-family="Arial, Helvetica, sans-serif" font-size="30" font-weight="700" fill="#ffffff">Tickets CRUD (In-Memory)</text>
  <rect x="778" y="84" width="288" height="40" rx="20" fill="#e8fbf2"/>
  <text x="826" y="110" font-family="Arial, Helvetica, sans-serif" font-size="16" font-weight="700" fill="#0f8a5f">Go to Users</text>

  <rect x="130" y="186" width="940" height="292" rx="22" fill="#f8fafc" stroke="#dce1ea"/>
  <text x="160" y="230" font-family="Arial, Helvetica, sans-serif" font-size="22" font-weight="700" fill="#1d2939">New Ticket</text>
  <rect x="160" y="255" width="880" height="44" rx="10" fill="#ffffff" stroke="#cfd6e4"/>
  <rect x="160" y="313" width="880" height="44" rx="10" fill="#ffffff" stroke="#cfd6e4"/>
  <rect x="160" y="371" width="880" height="44" rx="10" fill="#ffffff" stroke="#cfd6e4"/>
  <text x="160" y="450" font-family="Arial, Helvetica, sans-serif" font-size="16" font-weight="600" fill="#334155">Ticket owner</text>
  <rect x="160" y="464" width="152" height="34" rx="17" fill="#0f8a5f"/>
  <rect x="322" y="464" width="138" height="34" rx="17" fill="#e2e8f0"/>
  <rect x="470" y="464" width="152" height="34" rx="17" fill="#e2e8f0"/>
  <text x="190" y="486" font-family="Arial, Helvetica, sans-serif" font-size="14" font-weight="700" fill="#ffffff">Ada Lovelace</text>
  <text x="355" y="486" font-family="Arial, Helvetica, sans-serif" font-size="14" font-weight="700" fill="#334155">Alan Turing</text>
  <text x="510" y="486" font-family="Arial, Helvetica, sans-serif" font-size="14" font-weight="700" fill="#334155">Grace Hopper</text>
  <rect x="160" y="520" width="420" height="44" rx="10" fill="#0f8a5f"/>
  <rect x="600" y="520" width="440" height="44" rx="10" fill="#e6ebf5"/>
  <text x="317" y="549" font-family="Arial, Helvetica, sans-serif" font-size="16" font-weight="700" fill="#ffffff">Create Ticket</text>
  <text x="769" y="549" font-family="Arial, Helvetica, sans-serif" font-size="16" font-weight="700" fill="#334155">Cancel Edit</text>

  <text x="130" y="610" font-family="Arial, Helvetica, sans-serif" font-size="20" font-weight="700" fill="#0f172a">Tickets list</text>
  <rect x="130" y="630" width="940" height="92" rx="18" fill="#ffffff" stroke="#e2e8f0"/>
  <text x="160" y="664" font-family="Arial, Helvetica, sans-serif" font-size="18" font-weight="700" fill="#111827">Morning Commute</text>
  <text x="160" y="692" font-family="Arial, Helvetica, sans-serif" font-size="15" fill="#475467">Route: San Jose -&gt; Cartago | Seat: A1</text>
  <text x="160" y="716" font-family="Arial, Helvetica, sans-serif" font-size="14" font-weight="700" fill="#0f8a5f">Owner: Ada Lovelace</text>
</svg>
