<svg xmlns="http://www.w3.org/2000/svg" width="1200" height="780" viewBox="0 0 1200 780">
  <defs>
    <linearGradient id="bg" x1="0" x2="1" y1="0" y2="1">
      <stop offset="0%" stop-color="#f5f7fb"/>
      <stop offset="100%" stop-color="#eaf0ff"/>
    </linearGradient>
    <filter id="shadow" x="-20%" y="-20%" width="140%" height="140%">
      <feDropShadow dx="0" dy="12" stdDeviation="20" flood-color="#0f172a" flood-opacity="0.12"/>
    </filter>
  </defs>
  <rect width="1200" height="780" fill="url(#bg)"/>
  <rect x="90" y="60" width="1020" height="660" rx="28" fill="#ffffff" filter="url(#shadow)"/>
  <rect x="90" y="60" width="1020" height="86" rx="28" fill="#0b63f6"/>
  <text x="132" y="112" font-family="Arial, Helvetica, sans-serif" font-size="30" font-weight="700" fill="#ffffff">Users CRUD (In-Memory)</text>
  <rect x="770" y="84" width="296" height="40" rx="20" fill="#e6f0ff"/>
  <text x="822" y="110" font-family="Arial, Helvetica, sans-serif" font-size="16" font-weight="700" fill="#0b63f6">Go to Tickets</text>

  <rect x="130" y="186" width="940" height="220" rx="22" fill="#f8fafc" stroke="#dce1ea"/>
  <text x="160" y="230" font-family="Arial, Helvetica, sans-serif" font-size="22" font-weight="700" fill="#1d2939">New User</text>
  <rect x="160" y="255" width="880" height="44" rx="10" fill="#ffffff" stroke="#cfd6e4"/>
  <rect x="160" y="313" width="880" height="44" rx="10" fill="#ffffff" stroke="#cfd6e4"/>
  <rect x="160" y="369" width="420" height="44" rx="10" fill="#0b63f6"/>
  <rect x="600" y="369" width="440" height="44" rx="10" fill="#e6ebf5"/>
  <text x="320" y="398" font-family="Arial, Helvetica, sans-serif" font-size="16" font-weight="700" fill="#ffffff">Create User</text>
  <text x="770" y="398" font-family="Arial, Helvetica, sans-serif" font-size="16" font-weight="700" fill="#334155">Cancel Edit</text>

  <text x="130" y="460" font-family="Arial, Helvetica, sans-serif" font-size="20" font-weight="700" fill="#0f172a">Users list</text>
  <rect x="130" y="480" width="940" height="92" rx="18" fill="#ffffff" stroke="#e2e8f0"/>
  <text x="160" y="514" font-family="Arial, Helvetica, sans-serif" font-size="18" font-weight="700" fill="#111827">Ada Lovelace</text>
  <text x="160" y="542" font-family="Arial, Helvetica, sans-serif" font-size="15" fill="#475467">ada@demo.com</text>
  <rect x="820" y="504" width="110" height="36" rx="10" fill="#e6f0ff"/>
  <rect x="942" y="504" width="110" height="36" rx="10" fill="#fee2e2"/>
  <text x="851" y="527" font-family="Arial, Helvetica, sans-serif" font-size="14" font-weight="700" fill="#0b63f6">Edit</text>
  <text x="970" y="527" font-family="Arial, Helvetica, sans-serif" font-size="14" font-weight="700" fill="#b42318">Delete</text>
</svg>
